#!OML:ASF I:\Actors\actors\Patient Classification 1\Patient 1\Session 1\Subject1.ASF
:FULLY-SPECIFIED
:DEGREES
703
root 0.548027 17.5781 8.82949 5.94277 3.0975 -5.85548
lowerback 9.02517 -8.52362 3.8024
upperback 0.0137205 -10.7622 3.57037
thorax -4.9859 -5.36388 3.05605
lowerneck -17.4927 -8.52113 -7.95778
upperneck 32.2781 -12.0867 5.27622
head 14.9997 -5.49599 1.28967
rclavicle -1.09804e-013 7.20594e-014
rhumerus -52.3382 40.463 -96.2836
rradius 62.5334
rwrist 43.9566
rhand -32.5411 -29.3215
rfingers 7.12502
rthumb -5.77113 -59.2229
lclavicle -1.09804e-013 7.20594e-014
lhumerus -69.007 -79.1357 169.224
lradius 31.565
lwrist 11.1203
lhand -20.1524 -29.2957
lfingers 7.12502
lthumb 6.19269 0.593814
rfemur -8.31949 19.5141 22.962
rtibia 13.9654
rfoot -14.1731 -23.3239
rtoes -0.690727
lfemur 2.37469 -32.9895 -12.0341
ltibia -3.24897
lfoot -11.3788 36.8188
ltoes -7.21179
704
root 0.548052 17.5783 8.83118 5.96977 3.19686 -5.84654
lowerback 8.99653 -8.53464 3.90748
upperback 0.00721298 -10.7624 3.66751
thorax -4.97733 -5.36558 3.09678
lowerneck -17.38 -8.55007 -7.99073
upperneck 32.3955 -12.1208 5.21939
head 15.0297 -5.52374 1.26931
rclavicle 3.32219e-014 1.67973e-014
rhumerus -52.3384 40.1534 -96.1469
rradius 62.6188
rwrist 44.0142
rhand -32.4961 -29.5452
rfingers 7.12502
rthumb -5.72768 -59.4478
lclavicle 3.32219e-014 1.67973e-014
lhumerus -69.6547 -78.9586 169.874
lradius 32.0262
lwrist 11.328
lhand -19.9016 -29.5209
lfingers 7.12502
lthumb 6.43477 0.361366
rfemur -8.28043 19.4936 22.9511
rtibia 13.874
rfoot -14.1613 -23.4056
rtoes -0.614076
lfemur 2.28254 -33.0529 -12.0088
ltibia -3.19213
lfoot -11.4306 36.7842
ltoes -7.08565
705
root 0.548592 17.5775 8.83267 5.98399 3.26058 -5.85914
lowerback 8.98071 -8.54865 4.03505
upperback 0.00972952 -10.7639 3.7615
thorax -4.97107 -5.36818 3.1242
lowerneck -17.1904 -8.54061 -8.05417
upperneck 32.3851 -12.1181 5.2675
head 14.9915 -5.52956 1.3081
rclavicle 7.27241e-014 -2.69353e-014
rhumerus -52.324 39.8978 -96.021
rradius 62.7134
rwrist 43.9927
rhand -32.3919 -29.6796
rfingers 7.12502
rthumb -5.62708 -59.5849
lclavicle 7.27241e-014 -2.69353e-014
lhumerus -69.2843 -78.6663 169.524
lradius 32.4269
lwrist 11.4092
lhand -19.8971 -29.294
lfingers 7.12502
lthumb 6.43913 0.588139
rfemur -8.22769 19.4931 22.97
rtibia 13.7792
rfoot -14.1507 -23.463
rtoes -0.521935
lfemur 2.22958 -33.0459 -11.972
ltibia -3.1727
lfoot -11.2732 36.7478
ltoes -7.36971
706
root 0.547985 17.5775 8.83373 5.97893 3.28565 -5.81044
lowerback 9.02632 -8.56958 4.03801
upperback 0.00197881 -10.7835 3.85243
thorax -4.98705 -5.377 3.22635
lowerneck -17.1726 -8.51626 -8.06023
upperneck 32.5312 -12.0733 5.19992
head 15.0459 -5.5192 1.29063
rclavicle -5.42628e-014 7.92033e-015
rhumerus -52.3672 39.725 -95.9818
rradius 62.8566
rwrist 43.648
rhand -32.1303 -29.8465
rfingers 7.12502
rthumb -5.37458 -59.7583
lclavicle -5.42628e-014 7.92033e-015
lhumerus -71.1479 -78.9782 171.397
lradius 32.9639
lwrist 12.278
lhand -20.0915 -28.8635
lfingers 7.12502
lthumb 6.2515 1.02426
rfemur -8.16155 19.5536 22.9283
rtibia 13.6911
rfoot -14.1672 -23.5487
rtoes -0.390816
lfemur 2.21614 -32.9589 -12.0084
ltibia -3.18415
lfoot -10.9722 36.6514
ltoes -7.98786
707
root 0.547695 17.578 8.8354 5.95999 3.31749 -5.7669
lowerback 9.08496 -8.60467 4.04383
upperback -0.0170167 -10.8204 3.94222
thorax -5.02249 -5.39417 3.33191
lowerneck -17.2179 -8.51077 -8.09671
upperneck 32.7735 -12.0517 5.12887
head 15.1645 -5.51995 1.26864
rclavicle 4.3217e-014 3.01656e-014
rhumerus -52.5294 39.7001 -96.1142
rradius 63.0724
rwrist 42.5387
rhand -31.6867 -30.1042
rfingers 7.12502
rthumb -4.94623 -60.0264
lclavicle 4.3217e-014 3.01656e-014
lhumerus -72.4295 -79.2137 172.713
lradius 33.403
lwrist 13.0638
lhand -20.1661 -28.7488
lfingers 7.12502
lthumb 6.17948 1.14109
rfemur -8.09475 19.5921 22.8991
rtibia 13.6383
rfoot -14.1872 -23.6153
rtoes -0.277816
lfemur 2.23108 -32.8084 -12.0375
ltibia -3.22416
lfoot -10.7587 36.4689
ltoes -8.46797
708
root 0.548718 17.5783 8.83705 5.96636 3.377 -5.78618
lowerback 9.08952 -8.62753 4.1834
upperback -0.0327097 -10.8311 4.00619
thorax -5.05471 -5.40147 3.32984
lowerneck -17.1947 -8.52859 -8.11831
upperneck 32.9451 -12.0825 5.09783
head 15.2419 -5.53841 1.25339
rclavicle -2.82523e-014 5.1684e-015
rhumerus -52.7828 39.6963 -96.3862
rradius 63.3918
rwrist 40.1977
rhand -31.2126 -30.0457
rfingers 7.12502
rthumb -4.48847 -59.9782
lclavicle -2.82523e-014 5.1684e-015
lhumerus -70.5717 -78.7013 170.902
lradius 33.5989
lwrist 12.7978
lhand -20.0722 -28.5619
lfingers 7.12502
lthumb 6.27007 1.32527
rfemur -8.07236 19.6089 22.9287
rtibia 13.6096
rfoot -14.2043 -23.673
rtoes -0.269596
lfemur 2.21124 -32.7156 -11.9782
ltibia -3.27193
lfoot -10.692 36.3228
ltoes -8.59129
709
root 0.54987 17.579 8.83891 5.9737 3.46432 -5.82319
lowerback 9.0774 -8.63569 4.37675
upperback -0.0327073 -10.8194 4.04048
thorax -5.07728 -5.39897 3.2624
lowerneck -17.245 -8.59397 -8.0705
upperneck 33.1261 -12.1699 4.98126
head 15.3323 -5.58091 1.17679
rclavicle 7.34261e-015 -1.88845e-015
rhumerus -53.1478 39.6418 -96.8442
rradius 63.8845
rwrist 35.912
rhand -30.6287 -29.7908
rfingers 7.12502
rthumb -3.92457 -59.7344
lclavicle 7.34261e-015 -1.88845e-015
lhumerus -67.9521 -77.8641 168.286
lradius 33.7158
lwrist 11.9696
lhand -19.5868 -28.3066
lfingers 7.12502
lthumb 6.73869 1.56621
rfemur -8.0379 19.6171 22.98
rtibia 13.5603
rfoot -14.2135 -23.761
rtoes -0.360481
lfemur 2.17499 -32.7164 -11.9097
ltibia -3.28111
lfoot -10.704 36.2529
ltoes -8.43256
710
root 0.550123 17.5792 8.84147 5.98407 3.54422 -5.82843
lowerback 9.04655 -8.62742 4.53581
upperback -0.0280262 -10.7926 4.04862
thorax -5.08342 -5.3887 3.17999
lowerneck -17.2127 -8.66317 -8.06777
upperneck 33.2125 -12.2719 4.94005
head 15.3711 -5.6284 1.13959
rclavicle -1.10885e-013 2.37548e-014
rhumerus -53.7399 39.6669 -97.6044
rradius 64.6724
rwrist 29.2298
rhand -29.2465 -30.2457
rfingers 7.12502
rthumb -2.58978 -60.2097
lclavicle -1.10885e-013 2.37548e-014
lhumerus -69.4419 -78.0579 169.761
lradius 34.0648
lwrist 12.4651
lhand -19.1834 -28.0077
lfingers 7.12502
lthumb 7.12808 1.85225
rfemur -8.01278 19.614 22.9975
rtibia 13.5322
rfoot -14.2022 -23.8508
rtoes -0.307501
lfemur 2.12433 -32.6585 -11.8746
ltibia -3.25879
lfoot -10.7811 36.1513
ltoes -8.25048
711
root 0.550761 17.578 8.84433 5.99359 3.57694 -5.7657
lowerback 8.99334 -8.60973 4.58954
upperback -0.00540926 -10.768 4.05037
thorax -5.03989 -5.37788 3.13914
lowerneck -17.1 -8.66598 -8.06172
upperneck 33.2437 -12.2861 4.92807
head 15.3598 -5.63806 1.13582
rclavicle -8.81113e-014 7.95139e-014
rhumerus -54.5328 39.8215 -98.5511
rradius 65.884
rwrist 20.6732
rhand -27.3554 -32.0109
rfingers 7.12502
rthumb -0.763301 -61.9893
lclavicle -8.81113e-014 7.95139e-014
lhumerus -74.5145 -79.0613 174.821
lradius 34.6621
lwrist 14.1304
lhand -19.6413 -27.6405
lfingers 7.12502
lthumb 6.68614 2.23395
rfemur -8.00788 19.6104 22.9324
rtibia 13.5515
rfoot -14.2421 -23.8886
rtoes 0.0139621
lfemur 2.1109 -32.5702 -11.9453
ltibia -3.25794
lfoot -10.7284 36.0532
ltoes -8.45588
712
root 0.551896 17.5764 8.84696 5.96506 3.5847 -5.69634
lowerback 8.99052 -8.60538 4.58857
upperback 0.0236066 -10.7624 4.07585
thorax -5.00262 -5.37495 3.16089
lowerneck -17.0575 -8.63782 -7.92501
upperneck 33.2911 -12.2107 4.7
head 15.3332 -5.6212 1.03671
rclavicle 1.21507e-014 -4.91992e-014
rhumerus -55.1471 39.7974 -99.1705
rradius 67.8691
rwrist 8.89104
rhand -21.7498 -33.6628
rfingers 7.12502
rthumb 4.65033 -63.5918
lclavicle 1.21507e-014 -4.91992e-014
lhumerus -77.7686 -79.5763 178.078
lradius 35.1731
lwrist 15.2475
lhand -20.0875 -27.4282
lfingers 7.12502
lthumb 6.25537 2.45947
rfemur -7.95534 19.6103 22.8717
rtibia 13.5609
rfoot -14.3087 -23.8846
rtoes 0.0333731
lfemur 2.18561 -32.5374 -12.0759
ltibia -3.28664
lfoot -10.6145 36.0143
ltoes -8.66996
713
root 0.551167 17.5757 8.84513 5.96692 3.59586 -5.70285
lowerback 9.06035 -8.58154 4.67102
upperback 0.0129087 -10.7133 4.11727
thorax -5.06025 -5.35124 3.16713
lowerneck -17.097 -8.66044 -7.93356
upperneck 33.3717 -12.2323 4.66076
head 15.3797 -5.63377 1.01519
rclavicle -3.5657e-014 -2.69353e-014
rhumerus -55.3729 39.2077 -99.1567
rradius 70.0508
rwrist -2.96534
rhand -16.6476 -37.1637
rfingers 7.12502
rthumb 9.57537 -66.9261
lclavicle -3.5657e-014 -2.69353e-014
lhumerus -79.2323 -79.6947 179.584
lradius 35.4857
lwrist 15.8383
lhand -20.0876 -27.364
lfingers 7.12502
lthumb 6.25528 2.52369
rfemur -7.98529 19.6628 22.8815
rtibia 13.6016
rfoot -14.3154 -23.932
rtoes -0.130265
lfemur 2.13623 -32.4537 -12.0263
ltibia -3.26466
lfoot -10.6077 35.9122
ltoes -8.61926
714
root 0.548513 17.5759 8.83977 6.02042 3.60924 -5.71544
lowerback 9.15231 -8.55122 4.75103
upperback -0.0244839 -10.6527 4.1569
thorax -5.15835 -5.32165 3.17791
lowerneck -17.1809 -8.71939 -8.07549
upperneck 33.4605 -12.324 4.78583
head 15.4734 -5.66805 1.06657
rclavicle -7.77745e-015 1.5704e-014
rhumerus -55.5405 38.4059 -99.0742
rradius 71.8046
rwrist -15.5368
rhand -13.9277 -37.6217
rfingers 7.12502
rthumb 12.1989 -67.246
lclavicle -7.77745e-015 1.5704e-014
lhumerus -80.3131 -79.7489 180.709
lradius 35.7194
lwrist 16.2021
lhand -19.55 -27.5582
lfingers 7.12502
lthumb 6.7742 2.31338
rfemur -8.11936 19.7643 22.8692
rtibia 13.6803
rfoot -14.3204 -24.045
rtoes 0.0185231
lfemur 1.95411 -32.3749 -11.8851
ltibia -3.20169
lfoot -10.6062 35.8212
ltoes -8.65994
715
root 0.546467 17.5769 8.83808 6.07149 3.64588 -5.70649
lowerback 9.17648 -8.55983 4.77928
upperback -0.046208 -10.6563 4.18886
thorax -5.19369 -5.3235 3.20321
lowerneck -17.2618 -8.73386 -8.10515
upperneck 33.5595 -12.347 4.8018
head 15.5458 -5.67505 1.06887
rclavicle -1.01306e-013 2.40529e-014
rhumerus -55.0083 37.2082 -98.1474
rradius 73.592
rwrist -25.8555
rhand -13.077 -40.0035
rfingers 7.12502
rthumb 13.019 -69.5773
lclavicle -1.01306e-013 2.40529e-014
lhumerus -80.8626 -79.7841 181.243
lradius 35.9596
lwrist 16.4681
lhand -18.4103 -27.9042
lfingers 7.12502
lthumb 7.87438 1.92918
rfemur -8.19984 19.8274 22.8376
rtibia 13.6992
rfoot -14.356 -24.1464
rtoes 0.265155
lfemur 1.8397 -32.4232 -11.8197
ltibia -3.17852
lfoot -10.6441 35.8726
ltoes -8.63694
716
root 0.545365 17.578 8.83993 6.13832 3.69122 -5.69101
lowerback 9.13101 -8.59079 4.78233
upperback -0.0595604 -10.6988 4.22123
thorax -5.17644 -5.34471 3.2346
lowerneck -17.3233 -8.7169 -8.08574
upperneck 33.6266 -12.3373 4.81674
head 15.5912 -5.66383 1.07071
rclavicle -1.55897e-013 5.24792e-014
rhumerus -54.8102 36.468 -97.6706
rradius 73.9878
rwrist -26.4691
rhand -13.3336 -40.1561
rfingers 7.12502
rthumb 12.7716 -69.7455
lclavicle -1.55897e-013 5.24792e-014
lhumerus -75.9769 -78.865 176.321
lradius 35.8995
lwrist 15.4495
lhand -17.7682 -28.0621
lfingers 7.12502
lthumb 8.49407 1.7471
rfemur -8.24622 19.8248 22.8003
rtibia 13.6576
rfoot -14.3707 -24.181
rtoes 0.333628
lfemur 1.74886 -32.4744 -11.7806
ltibia -3.1762
lfoot -10.6938 35.8968
ltoes -8.53994
717
root 0.54378 17.5787 8.84263 6.21373 3.70316 -5.59028
lowerback 9.08075 -8.61372 4.66949
upperback -0.0736967 -10.7449 4.23382
thorax -5.1398 -5.36575 3.3046
lowerneck -17.3926 -8.69488 -8.00862
upperneck 33.6696 -12.3026 4.74509
head 15.6113 -5.64693 1.03219
rclavicle 2.8948e-014 -5.56597e-015
rhumerus -54.8266 36.2302 -97.5085
rradius 74.0281
rwrist -22.4658
rhand -8.99435 -40.9152
rfingers 7.12502
rthumb 16.9519 -70.1954
lclavicle 2.8948e-014 -5.56597e-015
lhumerus -80.9456 -79.827 181.293
lradius 36.2963
lwrist 16.8875
lhand -17.5948 -27.8111
lfingers 7.12502
lthumb 8.66135 1.99124
rfemur -8.28703 19.8011 22.6622
rtibia 13.6003
rfoot -14.3596 -24.1766
rtoes 0.254643
lfemur 1.657 -32.4813 -11.8431
ltibia -3.16081
lfoot -10.706 35.8469
ltoes -8.52268
